<svg xmlns="http://www.w3.org/2000/svg" viewBox="0 0 64 64"><defs><style>.cls-1{fill:#dfe1ea}.cls-2{fill:#adb2c7}.cls-5{fill:#fff}</style></defs><g id="_92-Html_Code" data-name="92-Html Code"><path class="cls-1" d="M63 11v50a2.006 2.006 0 0 1-2 2H3a2.006 2.006 0 0 1-2-2V11z"/><path class="cls-2" d="M61 1a2.006 2.006 0 0 1 2 2v8H1V3a2.006 2.006 0 0 1 2-2z"/><path d="M39.6 21c-7.6 0-7.6-2-15.2-2s-7.6 2-15.2 2A26.743 26.743 0 0 1 1 19.844v8A26.743 26.743 0 0 0 9.2 29c7.6 0 7.6-2 15.2-2s7.6 2 15.2 2 7.6-2 15.2-2a26.787 26.787 0 0 1 8.2 1.157v-8A26.787 26.787 0 0 0 54.8 19c-7.6 0-7.6 2-15.2 2z" style="fill:#cdd2e1"/><path d="M1 11v8.844A26.743 26.743 0 0 0 9.2 21c7.6 0 7.6-2 15.2-2s7.6 2 15.2 2 7.6-2 15.2-2a26.787 26.787 0 0 1 8.2 1.157V11z" style="fill:#f6fafd"/><rect class="cls-2" x="6" y="23" width="22" height="23" rx="1.576" ry="1.576"/><path class="cls-5" d="M5 29h20v14H5z"/><path style="fill:#ff636e" d="M5 21h20v8H5z"/><path class="cls-1" d="M8 32h14v8H8z"/><path class="cls-5" d="M5 5h2v2H5zM14 5h45v2H14zM8 24h2v2H8zM12 24h2v2h-2z"/><path d="M29 41h-4v-6h-2v14h2v-6h4v6h2V35h-2v6zM33 37h3v12h2V37h3v-2h-8v2zM50.178 35.016a1 1 0 0 0-1.115.632L47 41.152l-2.063-5.5A1 1 0 0 0 43 36v13h2v-7.485l1.063 2.837a1 1 0 0 0 1.874 0L49 41.515V49h2V36a1 1 0 0 0-.822-.984zM55 46V35h-2v11a2.916 2.916 0 0 0 3 3h4v-2h-4a.915.915 0 0 1-1-1z"/><path d="M61 0H3a3 3 0 0 0-3 3v58a3 3 0 0 0 3 3h58a3 3 0 0 0 3-3V3a3 3 0 0 0-3-3zM3 2h58a1 1 0 0 1 1 1v7H2V3a1 1 0 0 1 1-1zm58 60H3a1 1 0 0 1-1-1V12h60v49a1 1 0 0 1-1 1z"/><path d="M9 5h2v2H9zM6 30h18v1h2V21a1 1 0 0 0-1-1H5a1 1 0 0 0-1 1v22a1 1 0 0 0 1 1h13v-2H6zm18-8v6H6v-6z"/><path d="m12.293 32.293-3 3a1 1 0 0 0 0 1.414l3 3 1.414-1.414L11.414 36l2.293-2.293zM17.707 32.293l-1.414 1.414L18.586 36l-2.293 2.293 1.414 1.414 3-3a1 1 0 0 0 0-1.414zM29 29h11v2H29zM29 25h6v2h-6z"/></g></svg>